<svg xmlns="http://www.w3.org/2000/svg" width="56" height="57" viewBox="0 0 56 57" fill="none">
  <path fill-rule="evenodd" clip-rule="evenodd" d="M28.8016 26.4695C29.0775 26.2188 29.3384 25.9428 29.638 25.7184C30.1354 25.3456 30.7263 25.2016 31.3344 25.1453C32.1705 25.0678 32.9963 25.1118 33.7762 25.4658C34.5907 25.8353 35.1083 26.4787 35.4336 27.2948C35.7279 28.0326 35.8497 28.8077 35.8616 29.5926C35.8906 31.5154 35.8913 33.4387 35.8992 35.362C35.901 35.798 35.6812 36.0096 35.2478 36.0102C34.5023 36.0111 33.7569 36.0116 33.0115 36.0099C32.6027 36.009 32.4021 35.8072 32.402 35.396C32.4012 33.7455 32.4114 32.0948 32.3952 30.4444C32.3914 30.0568 32.3353 29.6615 32.2427 29.2846C32.0604 28.5441 31.5589 28.1304 30.8434 28.0677C30.0802 28.0008 29.4686 28.3484 29.141 29.0309C28.9129 29.506 28.8007 30.0054 28.8012 30.5325C28.8026 32.1431 28.8019 33.7537 28.8016 35.3644C28.8015 35.8043 28.5968 36.0096 28.1569 36.0101C27.4448 36.011 26.7327 36.0112 26.0205 36.01C25.5962 36.0093 25.3795 35.7955 25.3794 35.3748C25.3787 32.2201 25.3788 29.0653 25.3793 25.9106C25.3794 25.4823 25.5853 25.2792 26.0153 25.279C26.7474 25.2786 27.4795 25.2782 28.2116 25.2792C28.5905 25.2797 28.7992 25.4904 28.8014 25.8721C28.8026 26.0782 28.8016 26.2844 28.8016 26.4695Z" fill="#030A13"/>
  <path fill-rule="evenodd" clip-rule="evenodd" d="M23.9247 30.6515C23.9247 32.1948 23.9251 33.7383 23.9245 35.2815C23.9244 35.7991 23.7141 36.0106 23.2013 36.0108C22.5228 36.0113 21.8443 36.012 21.1657 36.0106C20.7208 36.0096 20.5041 35.7928 20.5041 35.3507C20.5038 32.2107 20.5038 29.0707 20.5041 25.9308C20.5041 25.4921 20.7132 25.2801 21.1459 25.2796C21.8577 25.279 22.5695 25.2788 23.2814 25.2797C23.7005 25.2803 23.9233 25.5063 23.9239 25.9415C23.9258 27.5115 23.9246 29.0814 23.9247 30.6515Z" fill="#030A13"/>
  <path fill-rule="evenodd" clip-rule="evenodd" d="M24.4079 22.2223C24.4067 23.4269 23.4178 24.4317 22.2124 24.4216C20.9977 24.4114 20.0131 23.4781 20.0059 22.2113C19.9989 20.9993 21.0025 20.0122 22.2029 20.0112C23.4154 20.0103 24.4089 21.0065 24.4079 22.2223Z" fill="#030A13"/>
</svg>