<svg width="22" height="22" viewBox="0 0 22 22" fill="none" xmlns="http://www.w3.org/2000/svg">
<g clip-path="url(#clip0_85_108)">
<path d="M8.25065 10.9999L10.084 12.8333L14.209 8.70825M16.4101 4.58188C16.5988 5.03841 16.9611 5.40128 17.4174 5.59074L19.0171 6.2534C19.4737 6.44251 19.8364 6.80525 20.0255 7.26181C20.2146 7.71837 20.2146 8.23135 20.0255 8.68791L19.3633 10.2866C19.1741 10.7433 19.1739 11.2568 19.3639 11.7134L20.0249 13.3116C20.1187 13.5377 20.167 13.7801 20.167 14.0249C20.167 14.2697 20.1188 14.5121 20.0252 14.7382C19.9315 14.9644 19.7942 15.1699 19.6211 15.3429C19.4479 15.516 19.2424 15.6533 19.0162 15.7469L17.4176 16.409C16.9611 16.5978 16.5983 16.9601 16.4088 17.4164L15.7462 19.0162C15.5571 19.4727 15.1944 19.8355 14.7378 20.0246C14.2813 20.2137 13.7683 20.2137 13.3118 20.0246L11.7132 19.3624C11.2566 19.1738 10.7438 19.1741 10.2876 19.3635L8.6878 20.0252C8.23151 20.2139 7.71899 20.2137 7.26282 20.0247C6.80665 19.8358 6.44413 19.4735 6.2549 19.0174L5.59206 17.4171C5.4033 16.9606 5.04098 16.5977 4.58476 16.4083L2.98501 15.7456C2.52867 15.5566 2.16605 15.1941 1.97688 14.7378C1.7877 14.2815 1.78744 13.7687 1.97616 13.3123L2.63833 11.7136C2.82697 11.257 2.82658 10.7442 2.63726 10.2879L1.97604 8.68697C1.8823 8.46084 1.83402 8.21846 1.83398 7.97367C1.83395 7.72887 1.88214 7.48647 1.97581 7.26032C2.06949 7.03416 2.20681 6.82867 2.37992 6.65561C2.55304 6.48254 2.75856 6.34529 2.98474 6.25168L4.58334 5.58949C5.03945 5.40089 5.4021 5.03902 5.59168 4.5833L6.25432 2.98349C6.44342 2.52693 6.80615 2.1642 7.26269 1.97509C7.71923 1.78597 8.2322 1.78597 8.68874 1.97509L10.2873 2.63727C10.7439 2.82592 11.2567 2.82554 11.713 2.6362L13.3134 1.97611C13.7699 1.78711 14.2827 1.78715 14.7392 1.97622C15.1956 2.1653 15.5583 2.52793 15.7474 2.98437L16.4103 4.58465L16.4101 4.58188Z" stroke="#FF4D4D" stroke-width="2" stroke-linecap="round" stroke-linejoin="round"/>
</g>
<defs>
<clipPath id="clip0_85_108">
<rect width="22" height="22" fill="white"/>
</clipPath>
</defs>
</svg>
