<svg xmlns="http://www.w3.org/2000/svg" width="56" height="57" viewBox="0 0 56 57" fill="none">
  <path d="M17.5684 32.1444V32.1451C17.5813 32.4787 17.5856 32.8142 17.6657 33.1456C17.751 33.4963 17.873 33.8383 18.1057 34.1567C18.4203 34.5875 18.8509 34.9514 19.3977 35.2485C19.7892 35.4619 20.2169 35.6313 20.6904 35.7382C21.3808 35.8938 22.093 35.9534 22.8157 35.9564C23.2666 35.9584 23.7172 35.9662 24.1683 35.9649C27.4438 35.9553 30.7194 35.9814 33.9951 35.9508C34.4297 35.9467 34.8573 35.9096 35.2839 35.8551C36.1015 35.7505 36.8241 35.5065 37.4424 35.1213C38.1629 34.6722 38.649 34.1226 38.8686 33.4593C39.0121 33.0257 39.0481 32.5858 39.0542 32.1444V32.0563C39.0542 32.0222 39.0356 24.5558 39.0339 24.4571C39.0291 24.186 39.0005 23.9169 38.9278 23.6502C38.8393 23.3251 38.7143 23.0084 38.4916 22.7144C38.2564 22.4036 37.9618 22.1243 37.5971 21.8802C37.039 21.5061 36.3948 21.2417 35.6446 21.1018C34.9674 20.9755 34.2764 20.9474 33.5803 20.9479C33.5781 20.9457 33.5768 20.9431 33.5765 20.9404H23.0422C23.0422 20.943 23.0422 20.9454 23.0416 20.9479C22.6465 20.9529 22.251 20.9508 21.858 20.9849C21.4275 21.0223 21.001 21.0786 20.5936 21.1838C19.9518 21.3497 19.3941 21.6081 18.9177 21.9531C18.378 22.3438 17.9974 22.7959 17.7958 23.3223C17.6156 23.7919 17.5764 24.2708 17.5754 24.7531" fill="white"/>
  <path d="M28.8266 36.5286L24.0294 36.4408C22.4761 36.4102 20.919 36.4713 19.3962 36.1543C17.0797 35.6806 16.9156 33.3583 16.7439 31.4104C16.5073 28.6717 16.5989 25.8834 17.0454 23.1677C17.2975 21.6438 18.2895 20.7346 19.8237 20.6356C25.0026 20.2765 30.2159 20.3191 35.3833 20.4866C35.929 20.502 36.4785 20.5859 37.0166 20.6815C39.673 21.1475 39.7377 23.7792 39.9099 25.9946C40.0817 28.2328 40.0091 30.4826 39.6809 32.7056C39.4176 34.5462 38.9138 36.0897 36.7876 36.2387C34.1237 36.4335 31.5209 36.5904 28.8495 36.5405C28.8496 36.5286 28.8342 36.5286 28.8266 36.5286ZM26.0063 31.8687C28.0138 30.7151 29.983 29.5808 31.979 28.4349C29.9678 27.2813 28.0023 26.147 26.0063 25.0011V31.8687Z" fill="#030A13"/>
</svg>