<svg xmlns="http://www.w3.org/2000/svg" width="18" height="18" viewBox="0 0 18 18" fill="none">
  <g clip-path="url(#clip0_76_2642)">
    <path d="M17.366 4.789c-.206-.686-.645-1.234-1.256-1.514C14.888 2.7 9 2.7 9 2.7s-5.888 0-7.11.575c-.611.28-1.05.828-1.256 1.514C.2 6.075.2 9 .2 9s0 2.925.434 4.211c.206.686.645 1.234 1.256 1.514C3.112 15.3 9 15.3 9 15.3s5.888 0 7.11-.575c.611-.28 1.05-.828 1.256-1.514.434-1.286.434-4.211.434-4.211s0-2.925-.434-4.211zM7.2 12.15V5.85l4.8 3.15-4.8 3.15z" fill="#030A13"/>
  </g>
  <defs>
    <clipPath id="clip0_76_2642">
      <rect width="18" height="18" fill="white"/>
    </clipPath>
  </defs>
</svg>