<?xml version="1.0" encoding="UTF-8"?><svg id="Layer_2" xmlns="http://www.w3.org/2000/svg" xmlns:xlink="http://www.w3.org/1999/xlink" viewBox="0 0 443.51 164.58"><defs><style>.cls-1{fill:url(#linear-gradient);}.cls-2{fill:#ff511c;}.cls-3{fill:#fff;}.cls-4{fill:#19253f;}.cls-5{fill:url(#linear-gradient-3);}.cls-6{fill:url(#linear-gradient-2);}</style><linearGradient id="linear-gradient" x1="317.34" y1="1.07" x2="317.34" y2="61.53" gradientUnits="userSpaceOnUse"><stop offset="0" stop-color="#f38c1a"/><stop offset="0" stop-color="#f38c1a"/><stop offset="1" stop-color="#f34d1a"/></linearGradient><linearGradient id="linear-gradient-2" x1="317.2" y1="1.07" x2="317.2" y2="61.53" xlink:href="#linear-gradient"/><linearGradient id="linear-gradient-3" x1="317.54" y1="1.07" x2="317.54" y2="61.53" xlink:href="#linear-gradient"/></defs><g id="Layer_1-2"><g><rect class="cls-4" y="81.78" width="266.85" height="82.8"/><g><path class="cls-3" d="M23.4,101.94h7.82l17.3,45.5h-9.1l-4.23-11.34h-15.89l-4.17,11.34H6.04l17.37-45.5Zm10.19,27.94l-6.28-17.88-6.54,17.88h12.82Z"/><path class="cls-3" d="M53.52,147.44v-45.5h8.84v37.74h23.2v7.75H53.52Z"/><path class="cls-3" d="M99.53,102.07h8.14l5.13,15.06,5.13-15.06h8.2l-7.75,20.7,5.77,14.55,12.88-35.37h9.61l-18.52,45.5h-7.43l-7.88-19.1-7.88,19.1h-7.43l-18.39-45.5h9.48l12.94,35.37,5.64-14.55-7.63-20.7Z"/><path class="cls-3" d="M160.34,101.94h7.82l17.3,45.5h-9.1l-4.23-11.34h-15.89l-4.17,11.34h-9.1l17.37-45.5Zm10.19,27.94l-6.28-17.88-6.54,17.88h12.82Z"/><path class="cls-3" d="M190.27,101.94l11.21,21.92,11.41-21.92h9.55l-16.53,29.6v15.89h-8.78v-16.02l-16.47-29.48h9.61Z"/><path class="cls-3" d="M253.32,113.86c-.3-.3-.84-.71-1.63-1.22-.79-.51-1.75-1.01-2.88-1.51-1.13-.49-2.36-.91-3.68-1.25-1.33-.34-2.67-.51-4.04-.51-2.43,0-4.25,.45-5.45,1.35-1.2,.9-1.79,2.16-1.79,3.78,0,.94,.22,1.72,.67,2.34,.45,.62,1.1,1.16,1.95,1.63,.85,.47,1.93,.9,3.24,1.28,1.3,.38,2.81,.79,4.52,1.22,2.22,.6,4.24,1.24,6.06,1.92,1.82,.68,3.35,1.54,4.61,2.56,1.26,1.03,2.23,2.25,2.92,3.68,.68,1.43,1.03,3.19,1.03,5.29,0,2.43-.46,4.52-1.38,6.25-.92,1.73-2.16,3.13-3.72,4.2-1.56,1.07-3.35,1.85-5.38,2.34-2.03,.49-4.16,.74-6.38,.74-3.42,0-6.79-.51-10.12-1.54-3.33-1.03-6.32-2.48-8.97-4.36l3.91-7.63c.38,.38,1.08,.89,2.08,1.51,1,.62,2.19,1.24,3.56,1.86,1.37,.62,2.88,1.14,4.55,1.57,1.67,.43,3.37,.64,5.13,.64,4.87,0,7.31-1.56,7.31-4.68,0-.98-.28-1.82-.83-2.5-.56-.68-1.35-1.28-2.37-1.79-1.02-.51-2.26-.98-3.72-1.41-1.45-.43-3.08-.9-4.87-1.41-2.18-.6-4.07-1.25-5.67-1.95-1.6-.7-2.94-1.54-4-2.5-1.07-.96-1.87-2.07-2.4-3.33-.53-1.26-.8-2.77-.8-4.52,0-2.31,.43-4.36,1.28-6.15,.85-1.79,2.04-3.29,3.56-4.49,1.52-1.2,3.28-2.1,5.29-2.72,2.01-.62,4.17-.93,6.47-.93,3.2,0,6.15,.5,8.84,1.51,2.69,1,5.04,2.19,7.05,3.56l-3.91,7.18Z"/></g><g><path class="cls-2" d="M304.94,113.23h2.74l1.72,5.07,1.72-5.07h2.76l-2.61,6.96,1.94,4.89,4.33-11.9h3.23l-6.23,15.3h-2.5l-2.65-6.42-2.65,6.42h-2.5l-6.19-15.3h3.19l4.35,11.9,1.9-4.89-2.56-6.96Z"/><path class="cls-2" d="M322.08,115.63v-2.87h2.89v2.87h-2.89Zm0,12.87v-11.3h2.89v11.3h-2.89Z"/><path class="cls-2" d="M328.26,120h-1.49v-2.2h1.49v-.69c0-.62,.1-1.21,.31-1.77,.21-.56,.51-1.05,.91-1.46,.4-.41,.88-.74,1.44-.98,.57-.24,1.21-.37,1.93-.37,.82,0,1.57,.13,2.25,.4,.68,.27,1.33,.6,1.93,1l-1.14,2.16c-.37-.33-.81-.6-1.32-.8-.5-.2-1.01-.3-1.53-.3-.65,0-1.12,.2-1.43,.6-.31,.4-.46,.87-.46,1.4v.8h6.06v10.69h-2.89v-8.49h-3.17v8.49h-2.89v-8.49Z"/></g><g><path class="cls-4" d="M320.48,160.68c-23.28,0-42.11-18.83-42.11-42.11s18.83-42.23,42.11-42.23,42.23,18.83,42.23,42.23-19.06,42.11-42.23,42.11Zm-24.88-42.11c0,13.58,11.3,24.88,24.88,24.88s24.65-11.3,24.65-24.88-11.07-24.99-24.65-24.99-24.88,11.41-24.88,24.99Z"/><path class="cls-4" d="M387.02,103.39v56.38h-15.64V77.94h20.54l36.41,50.9v-50.9h15.18v81.83h-15.18l-41.31-56.38Z"/></g><g><path class="cls-1" d="M281.72,66.62s13.47-16.62,35.55-16.62,35.69,16.88,35.69,16.88l-10.74,6.7c-25.38-24.1-50.12-.52-50.12-.52l-10.37-6.44Z"/><path class="cls-6" d="M269.54,61.12s20.75-26.06,50-23.1c29.25,2.96,45.61,23.06,45.61,23.06l11.6-5.28s-18.68-30.67-61.59-30.41c0,0-33.79-1.55-57.5,30.41l11.89,5.32Z"/><path class="cls-5" d="M245.32,51.16s23.15-38.65,71.88-38.91c48.21-.26,71.4,38.91,71.4,38.91l13.01-3.48S372.46-.64,317.2,0c-55.26,.64-78.2,39.82-83.74,47.29l11.85,3.87Z"/></g></g></g></svg>