<svg id="Logo" xmlns="http://www.w3.org/2000/svg" width="143.387" height="27.091" viewBox="0 0 143.387 27.091">
  <path id="Path_316" data-name="Path 316" d="M122.2,26.782V13.075H119.13V8.217H122.2V7.9a7.79,7.79,0,0,1,1.031-4.065,6.878,6.878,0,0,1,2.845-2.64A8.908,8.908,0,0,1,130.2.259a10.992,10.992,0,0,1,5.058,1.188l-1.188,4.394A11.029,11.029,0,0,0,131,5.388a2.267,2.267,0,0,0-1.76.669,2.7,2.7,0,0,0-.61,1.922v.238h5.01v4.859h-4.988V26.788Z" transform="translate(-54.817 -0.114)" fill="#009fdb"/>
  <path id="Path_317" data-name="Path 317" d="M150.359,3.235A3.023,3.023,0,0,1,151.352.9a4.081,4.081,0,0,1,5.129,0,3.023,3.023,0,0,1,1,2.338,3.077,3.077,0,0,1-1,2.359,4.022,4.022,0,0,1-5.129,0,3.077,3.077,0,0,1-.993-2.359Zm.346,4.859h6.424V26.66H150.7Z" transform="translate(-69.185 0.009)" fill="#009fdb"/>
  <path id="Path_318" data-name="Path 318" d="M168.07,27.082V2.638L174.511.91V9.7a7.018,7.018,0,0,1,4.432-1.62,7.277,7.277,0,0,1,4.238,1.242,7.758,7.758,0,0,1,2.742,3.439,12.682,12.682,0,0,1,.945,5.026,11.337,11.337,0,0,1-1.08,5.112,8.233,8.233,0,0,1-2.969,3.4,7.644,7.644,0,0,1-4.205,1.188A8.033,8.033,0,0,1,175.72,27a8.179,8.179,0,0,1-2.516-1.566l-.734,1.62Zm9-13.68a5.6,5.6,0,0,0-2.564.626v7.612a5.906,5.906,0,0,0,2.478.54,2.975,2.975,0,0,0,2.51-1.134,5.247,5.247,0,0,0,.875-3.239,5.4,5.4,0,0,0-.853-3.266A2.867,2.867,0,0,0,177.075,13.4Z" transform="translate(-77.336 -0.414)" fill="#009fdb"/>
  <path id="Path_319" data-name="Path 319" d="M214.775,33.627a9.815,9.815,0,0,1-5.042-1.274,8.638,8.638,0,0,1-3.353-3.471,10.365,10.365,0,0,1-1.172-4.956,10.257,10.257,0,0,1,1.242-5.08,8.832,8.832,0,0,1,3.315-3.423,9.016,9.016,0,0,1,4.589-1.2,8.438,8.438,0,0,1,4.486,1.188,8.044,8.044,0,0,1,2.985,3.239,10.014,10.014,0,0,1,1.047,4.632c0,.788-.038,1.62-.108,2.44H211.352a3.445,3.445,0,0,0,1.468,2.116,5.523,5.523,0,0,0,2.964.68,11.007,11.007,0,0,0,2.392-.265,14.2,14.2,0,0,0,2.6-.891l1.593,4.276a16,16,0,0,1-3.682,1.522,15.38,15.38,0,0,1-3.914.47ZM214.462,19q-2.548,0-3.142,3.1h5.755V21.9a3.034,3.034,0,0,0-.713-2.095,2.429,2.429,0,0,0-1.9-.8Z" transform="translate(-94.424 -6.537)" fill="#009fdb"/>
  <path id="Path_320" data-name="Path 320" d="M253.876,20.12a10.468,10.468,0,0,0-1.992-.281,8.055,8.055,0,0,0-3.59.8V33.207H241.87V14.641h5.652l.383,1.954a8.767,8.767,0,0,1,2.586-1.8,7.2,7.2,0,0,1,2.894-.578,5.442,5.442,0,0,1,1.3.14Z" transform="translate(-111.294 -6.538)" fill="#009fdb"/>
  <path id="Path_321" data-name="Path 321" d="M6.921,15H11.11l6.926,18.566H13.523l-1.166-3.66H5.62l-1.166,3.66H0ZM6.737,26.375h4.481l-2.23-7.056Z" transform="translate(0 -6.897)"/>
  <path id="Path_322" data-name="Path 322" d="M33.177,18.714H27.66V15h15.2v3.714H37.34V33.566H33.177Z" transform="translate(-12.727 -6.897)"/>
  <path id="Path_323" data-name="Path 323" d="M61.909,33.626a6.646,6.646,0,0,1-4.416-1.409,4.535,4.535,0,0,1-1.684-3.66,4.751,4.751,0,0,1,.993-2.915,8.271,8.271,0,0,1,2.888-2.316,9.718,9.718,0,0,1-1.576-2.23,4.616,4.616,0,0,1-.464-2.014,4.319,4.319,0,0,1,.713-2.467A4.637,4.637,0,0,1,60.327,15a6.63,6.63,0,0,1,2.813-.572A6.117,6.117,0,0,1,67.1,15.616,3.887,3.887,0,0,1,68.576,18.8q0,2.732-3.925,4.8l2.759,2.942.378-.686c.13-.221.259-.448.383-.68l1-1.809h3.687l-1.674,3q-.745,1.323-1.458,2.4L74,33.3H69.3l-1.857-1.965A7.245,7.245,0,0,1,65,33.086a8.06,8.06,0,0,1-3.088.54Zm.48-3.115a3.52,3.52,0,0,0,2.786-1.3l-3.558-3.844a5.291,5.291,0,0,0-1.447,1.35,2.564,2.564,0,0,0-.437,1.436,2.159,2.159,0,0,0,.74,1.7,2.85,2.85,0,0,0,1.917.664ZM61.272,18.947a2.284,2.284,0,0,0,.319,1.182,9.819,9.819,0,0,0,1.166,1.512A6.964,6.964,0,0,0,64.414,20.3a2.024,2.024,0,0,0,.54-1.312,1.62,1.62,0,0,0-.48-1.193,1.711,1.711,0,0,0-1.269-.48,2.035,2.035,0,0,0-1.382.464A1.517,1.517,0,0,0,61.272,18.947Z" transform="translate(-25.679 -6.628)"/>
  <path id="Path_324" data-name="Path 324" d="M88.787,18.714H83.27V15h15.2v3.714H92.95V33.566H88.787Z" transform="translate(-38.316 -6.897)"/>
</svg>
