<?xml version="1.0" encoding="utf-8"?>
<!-- Generator: Adobe Illustrator 25.2.3, SVG Export Plug-In . SVG Version: 6.00 Build 0)  -->
<svg version="1.1" id="Layer_1" xmlns="http://www.w3.org/2000/svg" xmlns:xlink="http://www.w3.org/1999/xlink" x="0px" y="0px"
	 viewBox="0 0 151 38" style="enable-background:new 0 0 151 38;" xml:space="preserve">
<style type="text/css">
	.st0{fill:#E20074;}
</style>
<g id="Page-1">
	<g id="TMO_HI_Lockup_RGB_OnTransparent">
		<path id="Shape" class="st0" d="M129,17.3h-3c0-7.5-6.1-13.6-13.6-13.6v-3C121.5,0.7,129,8.1,129,17.3z M112.4,6.6v3
			c4.2,0,7.6,3.4,7.6,7.6h3C123,11.4,118.2,6.6,112.4,6.6z M112.4,12.8v4.4h4.4C116.7,14.8,114.8,12.9,112.4,12.8z"/>
		<g id="Group" transform="translate(0.000000, 0.592885)">
			<polygon id="Path" class="st0" points="0.4,24.1 7.7,24.1 7.7,16.8 0.4,16.8 			"/>
			<path id="Path_1_" class="st0" d="M18.1,1.8c6,0.1,9.5,4.1,10.1,11.4l2-0.3L29.8,0.1H0.8L0.5,12.9l2,0.3C3,5.9,6.5,1.9,12.5,1.8
				v26.8c0,4.9-0.8,5.6-6.1,5.7v2h17.8v-2c-5.2-0.1-6.1-0.8-6.1-5.7L18.1,1.8L18.1,1.8z"/>
			<polygon id="Path_2_" class="st0" points="22.6,24.1 30,24.1 30,16.8 22.6,16.8 			"/>
		</g>
		<rect id="Rectangle" x="39.1" y="0.7" width="1.2" height="36.3"/>
		<g id="Group_1_" transform="translate(49.209486, 20.158103)">
			<polygon id="Path_3_" points="0.1,16.7 0.1,0.1 3.7,0.1 3.7,16.7 			"/>
			<polygon id="Path_4_" points="6.6,16.7 6.6,0.1 10.3,0.1 15.5,10.8 15.5,0.1 18.9,0.1 18.9,16.7 15.4,16.7 10.1,6 10.1,16.7 			
				"/>
			<polygon id="Path_5_" points="24.5,16.7 24.5,3.1 20.5,3.1 20.5,0.1 32.1,0.1 32.1,3.1 28.1,3.1 28.1,16.7 			"/>
			<polygon id="Path_6_" points="33.8,16.7 33.8,0.1 44.4,0.1 44.4,3.1 37.4,3.1 37.4,6.7 43.8,6.7 43.8,9.6 37.4,9.6 37.4,13.7 
				44.5,13.7 44.5,16.7 			"/>
			<path id="Shape_1_" d="M47.1,16.7V0.1h6.4c1.7,0,3,0.4,3.9,1.1c1.1,0.8,1.5,2,1.5,3.6c0,0.5-0.1,0.9-0.2,1.4
				c-0.4,1.2-1.1,2.2-2.2,2.7c0.7,0.2,1.2,0.7,1.5,1.2c0.2,0.4,0.4,0.8,0.5,1.3c0.1,0.5,0.2,1.5,0.3,2.9c0.1,0.7,0.1,1.1,0.2,1.4
				s0.2,0.6,0.4,0.9h-3.7c-0.1-0.3-0.2-0.5-0.2-0.8s-0.1-1-0.2-2.3c-0.1-0.8-0.2-1.4-0.3-1.9c-0.1-0.4-0.3-0.8-0.5-1
				c-0.4-0.4-0.9-0.5-1.8-0.5h-2v6.5L47.1,16.7L47.1,16.7z M50.6,7.5h2c1.1,0,1.8-0.2,2.3-0.7c0.4-0.4,0.5-0.9,0.5-1.7
				c0-0.4-0.1-0.7-0.2-0.9c-0.2-0.5-0.4-0.8-0.8-0.9C54,3.1,53.4,3,52.7,3h-2L50.6,7.5L50.6,7.5z"/>
			<polygon id="Path_7_" points="61.7,16.7 61.7,0.1 65.3,0.1 70.5,10.8 70.5,0.1 73.9,0.1 73.9,16.7 70.4,16.7 65.2,6 65.2,16.7 
							"/>
			<polygon id="Path_8_" points="76.9,16.7 76.9,0.1 87.5,0.1 87.5,3.1 80.5,3.1 80.5,6.7 86.9,6.7 86.9,9.6 80.5,9.6 80.5,13.7 
				87.6,13.7 87.6,16.7 			"/>
			<polygon id="Path_9_" points="93,16.7 93,3.1 88.9,3.1 88.9,0.1 100.6,0.1 100.6,3.1 96.5,3.1 96.5,16.7 			"/>
		</g>
		<g id="Group_2_" transform="translate(49.209486, 0.000000)">
			<polygon id="Path_10_" points="49.4,17.3 49.4,0.7 60.1,0.7 60.1,3.7 53,3.7 53,7.2 59.4,7.2 59.4,10.1 53,10.1 53,14.2 
				60.2,14.2 60.2,17.3 			"/>
			<polygon id="Path_11_" points="0.1,17.2 0.1,0.7 3.7,0.7 3.7,6.9 9,6.9 9,0.7 12.5,0.7 12.5,17.2 9,17.2 9,10 3.7,10 3.7,17.2 
							"/>
			<path id="Shape_2_" d="M21.8,0.2c0.9,0,1.7,0.2,2.5,0.5c1.5,0.7,2.7,1.8,3.5,3.4c0.7,1.4,1,3,1,4.8c0,1.1-0.1,2.1-0.4,3
				c-0.5,1.8-1.3,3.3-2.6,4.3c-1.1,0.9-2.5,1.4-4,1.4c-1.1,0-2.1-0.2-3-0.7c-1.5-0.8-2.6-2-3.3-3.7c-0.5-1.2-0.8-2.7-0.8-4.4
				c0-2.6,0.7-4.7,2.1-6.3C18.1,1,19.7,0.2,21.8,0.2z M21.8,3.3c-0.5,0-0.9,0.1-1.4,0.4c-0.7,0.4-1.3,1.2-1.7,2.3
				c-0.3,0.9-0.5,1.9-0.5,3c0,0.8,0.1,1.5,0.2,2.3c0.3,1.2,0.8,2.2,1.4,2.7c0.6,0.5,1.2,0.7,1.9,0.7c0.5,0,0.9-0.1,1.4-0.4
				s0.8-0.6,1.1-1.1c0.7-1.1,1-2.5,1-4.3c0-1.6-0.3-3-0.9-4C23.7,3.8,22.9,3.3,21.8,3.3z"/>
			<polygon id="Path_12_" points="31,17.2 31,0.7 35.8,0.7 38.8,12 41.7,0.7 46.5,0.7 46.5,17.2 43,17.2 43,5.7 40.2,17.2 
				37.4,17.2 34.4,5.8 34.4,17.2 			"/>
		</g>
	</g>
</g>
</svg>
